<?xml version="1.0" standalone="no"?>
<!DOCTYPE svg PUBLIC "-//W3C//DTD SVG 20010904//EN"
 "http://www.w3.org/TR/2001/REC-SVG-20010904/DTD/svg10.dtd">
<svg version="1.0" xmlns="http://www.w3.org/2000/svg"
 width="700.000000pt" height="700.000000pt" viewBox="0 0 700.000000 700.000000"
 preserveAspectRatio="xMidYMid meet">
<metadata>
Created by potrace 1.11, written by Peter Selinger 2001-2013
</metadata>
<g transform="translate(0.000000,700.000000) scale(0.100000,-0.100000)"
fill="#000000" stroke="none">
<path d="M4270 3935 c-1119 -304 -2038 -550 -2041 -547 -4 4 -156 232 -339
507 -183 275 -335 501 -339 502 -7 2 -71 -77 -196 -241 -508 -668 -640 -1191
-364 -1445 221 -204 524 -253 898 -145 184 54 402 144 1781 739 926 400 2615
1132 2658 1152 39 19 42 33 5 32 -16 -1 -944 -250 -2063 -554z"/>
</g>
</svg>
